<svg xmlns="http://www.w3.org/2000/svg" version="1.1" xmlns:xlink="http://www.w3.org/1999/xlink" xmlns:svgjs="http://svgjs.com/svgjs" width="1440" height="1000" preserveAspectRatio="none" viewBox="0 0 1440 1000"><g mask="url(&quot;#SvgjsMask1522&quot;)" fill="none"><rect width="1440" height="1000" x="0" y="0" fill="rgba(255, 255, 255, 1)"></rect><path d="M110 49.52L185.34 93.02L185.34 180.02L110 223.52L34.65 180.02L34.65 93.02zM110 310.52L185.34 354.02L185.34 441.02L110 484.52L34.65 441.02L34.65 354.02zM34.65 702.02L110 745.52L110 832.52L34.65 876.02L-40.7 832.52L-40.7 745.52zM110 832.52L185.34 876.02L185.34 963.02L110 1006.52L34.65 963.02L34.65 876.02zM185.34 180.02L260.69 223.52L260.69 310.52L185.34 354.02L110 310.52L110 223.52zM185.34 441.02L260.69 484.52L260.69 571.52L185.34 615.02L110 571.52L110 484.52zM185.34 963.02L260.69 1006.52L260.69 1093.52L185.34 1137.02L110 1093.52L110 1006.52zM336.04 -80.98L411.38 -37.48L411.38 49.52L336.04 93.02L260.69 49.52L260.69 -37.48zM411.38 310.52L486.73 354.02L486.73 441.02L411.38 484.52L336.04 441.02L336.04 354.02zM411.38 832.52L486.73 876.02L486.73 963.02L411.38 1006.52L336.04 963.02L336.04 876.02zM562.07 49.52L637.42 93.02L637.42 180.02L562.07 223.52L486.73 180.02L486.73 93.02zM486.73 180.02L562.07 223.52L562.07 310.52L486.73 354.02L411.38 310.52L411.38 223.52zM486.73 702.02L562.07 745.52L562.07 832.52L486.73 876.02L411.38 832.52L411.38 745.52zM637.42 180.02L712.77 223.52L712.77 310.52L637.42 354.02L562.07 310.52L562.07 223.52zM712.77 571.52L788.11 615.02L788.11 702.02L712.77 745.52L637.42 702.02L637.42 615.02zM637.42 702.02L712.77 745.52L712.77 832.52L637.42 876.02L562.07 832.52L562.07 745.52zM712.77 832.52L788.11 876.02L788.11 963.02L712.77 1006.52L637.42 963.02L637.42 876.02zM637.42 963.02L712.77 1006.52L712.77 1093.52L637.42 1137.02L562.07 1093.52L562.07 1006.52zM863.46 49.52L938.81 93.02L938.81 180.02L863.46 223.52L788.11 180.02L788.11 93.02zM863.46 310.52L938.81 354.02L938.81 441.02L863.46 484.52L788.11 441.02L788.11 354.02zM788.11 441.02L863.46 484.52L863.46 571.52L788.11 615.02L712.77 571.52L712.77 484.52zM938.81 -80.98L1014.15 -37.48L1014.15 49.52L938.81 93.02L863.46 49.52L863.46 -37.48zM1014.15 571.52L1089.5 615.02L1089.5 702.02L1014.15 745.52L938.81 702.02L938.81 615.02zM1089.5 -80.98L1164.85 -37.48L1164.85 49.52L1089.5 93.02L1014.15 49.52L1014.15 -37.48zM1164.85 49.52L1240.19 93.02L1240.19 180.02L1164.85 223.52L1089.5 180.02L1089.5 93.02zM1089.5 180.02L1164.85 223.52L1164.85 310.52L1089.5 354.02L1014.15 310.52L1014.15 223.52zM1089.5 702.02L1164.85 745.52L1164.85 832.52L1089.5 876.02L1014.15 832.52L1014.15 745.52zM1089.5 963.02L1164.85 1006.52L1164.85 1093.52L1089.5 1137.02L1014.15 1093.52L1014.15 1006.52zM1315.54 49.52L1390.88 93.02L1390.88 180.02L1315.54 223.52L1240.19 180.02L1240.19 93.02zM1315.54 310.52L1390.88 354.02L1390.88 441.02L1315.54 484.52L1240.19 441.02L1240.19 354.02zM1315.54 832.52L1390.88 876.02L1390.88 963.02L1315.54 1006.52L1240.19 963.02L1240.19 876.02zM1390.88 441.02L1466.23 484.52L1466.23 571.52L1390.88 615.02L1315.54 571.52L1315.54 484.52z" stroke="rgba(185, 133, 255, 0.65)" stroke-width="2"></path></g><defs><mask id="SvgjsMask1522"><rect width="1440" height="1000" fill="#ffffff"></rect></mask></defs></svg>